{
	"asset":{
		"generator":"Khronos glTF Blender I/O v3.6.28",
		"version":"2.0"
	},
	"scene":0,
	"scenes":[
		{
			"name":"Scene",
			"nodes":[
				0
			]
		}
	],
	"nodes":[
		{
			"mesh":0,
			"name":"Plane.001",
			"scale":[
				4.686385631561279,
				4.686385631561279,
				4.686385631561279
			],
			"translation":[
				-0.24865831434726715,
				0,
				1.2788141965866089
			]
		}
	],
	"materials":[
		{
			"alphaMode":"BLEND",
			"doubleSided":true,
			"name":"Color_01",
			"pbrMetallicRoughness":{
				"baseColorFactor":[
					0.6862750053405762,
					0.7411760091781616,
					0.7686269879341125,
					1
				],
				"metallicFactor":0.45164287090301514,
				"roughnessFactor":0.1050729900598526
			}
		},
		{
			"alphaMode":"BLEND",
			"doubleSided":true,
			"name":"Color_I",
			"pbrMetallicRoughness":{
				"baseColorFactor":[
					0.22352899610996246,
					0.34509798884391785,
					0.4392159879207611,
					1
				],
				"metallicFactor":0.5,
				"roughnessFactor":0.45164287090301514
			}
		}
	],
	"meshes":[
		{
			"name":"Plane.001",
			"primitives":[
				{
					"attributes":{
						"POSITION":0,
						"NORMAL":1,
						"TEXCOORD_0":2
					},
					"indices":3,
					"material":0
				},
				{
					"attributes":{
						"POSITION":4,
						"NORMAL":5,
						"TEXCOORD_0":6
					},
					"indices":7,
					"material":1
				}
			]
		}
	],
	"accessors":[
		{
			"bufferView":0,
			"componentType":5126,
			"count":1838,
			"max":[
				1.0014917850494385,
				0.16122809052467346,
				0.9386777281761169
			],
			"min":[
				-0.9886788129806519,
				-0.010203130543231964,
				-1.0514928102493286
			],
			"type":"VEC3"
		},
		{
			"bufferView":1,
			"componentType":5126,
			"count":1838,
			"type":"VEC3"
		},
		{
			"bufferView":2,
			"componentType":5126,
			"count":1838,
			"type":"VEC2"
		},
		{
			"bufferView":3,
			"componentType":5123,
			"count":3150,
			"type":"SCALAR"
		},
		{
			"bufferView":4,
			"componentType":5126,
			"count":201,
			"max":[
				0.46847131848335266,
				0.03543027490377426,
				-0.27305692434310913
			],
			"min":[
				0.4400814175605774,
				0.005823218263685703,
				-0.30334457755088806
			],
			"type":"VEC3"
		},
		{
			"bufferView":5,
			"componentType":5126,
			"count":201,
			"type":"VEC3"
		},
		{
			"bufferView":6,
			"componentType":5126,
			"count":201,
			"type":"VEC2"
		},
		{
			"bufferView":7,
			"componentType":5123,
			"count":342,
			"type":"SCALAR"
		}
	],
	"bufferViews":[
		{
			"buffer":0,
			"byteLength":22056,
			"byteOffset":0,
			"target":34962
		},
		{
			"buffer":0,
			"byteLength":22056,
			"byteOffset":22056,
			"target":34962
		},
		{
			"buffer":0,
			"byteLength":14704,
			"byteOffset":44112,
			"target":34962
		},
		{
			"buffer":0,
			"byteLength":6300,
			"byteOffset":58816,
			"target":34963
		},
		{
			"buffer":0,
			"byteLength":2412,
			"byteOffset":65116,
			"target":34962
		},
		{
			"buffer":0,
			"byteLength":2412,
			"byteOffset":67528,
			"target":34962
		},
		{
			"buffer":0,
			"byteLength":1608,
			"byteOffset":69940,
			"target":34962
		},
		{
			"buffer":0,
			"byteLength":684,
			"byteOffset":71548,
			"target":34963
		}
	],
	"buffers":[
		{
			"byteLength":72232,
			"uri":"data:application/octet-stream;base64,"
		}
	]
}
